<?xml version="1.0"?>
<svg version="1.1" xmlns="http://www.w3.org/2000/svg"
     xmlns:xlink="http://www.w3.org/1999/xlink"
     width="4in" height="4in"
     viewBox="0 0 400 400"
     preserveAspectRatio="xMidYMid">
    <defs>

        <g id="shape" fill="white" stroke-width="1" stroke="black">
            <path
                    d="M 0,25 L 0,25 L 0,0 M 0,25 L 11.618079301094212,22.136400641330248 L 0,0 M 11.618079301094212,22.136400641330248 L 20.57459664734141,14.201618668278899 L 0,0 M 20.57459664734141,14.201618668278899 L 24.81772185245135,3.0134170063830807 L 0,0 M 24.81772185245135,3.0134170063830807 L 23.37540606713537,-8.865122176063386 L 0,0 M 23.37540606713537,-8.865122176063386 L 16.578066456019886,-18.712768704277522 L 0,0 M 16.578066456019886,-18.712768704277522 L 5.982891607188953,-24.273545435651297 L 0,0 M 5.982891607188953,-24.273545435651297 L -5.982891607188936,-24.273545435651304 L 0,0 M -5.982891607188936,-24.273545435651304 L -16.578066456019876,-18.712768704277533 L 0,0 M -16.578066456019876,-18.712768704277533 L -23.37540606713537,-8.865122176063398 L 0,0 M -23.37540606713537,-8.865122176063398 L -24.817721852451353,3.013417006383058 L 0,0 M -24.817721852451353,3.013417006383058 L -20.574596647341416,14.20161866827889 L 0,0 M -20.574596647341416,14.20161866827889 L -11.618079301094228,22.13640064133024 L 0,0 M -11.618079301094228,22.13640064133024 L 0,25 L 0,0 Z"
            >
                <animateTransform
                        attributeName="transform"
                        type="rotate"
                        from="0 0 0"
                        to="360 0 0"
                        dur="5s"
                        repeatCount="indefinite"/>
            </path>
        </g>

        <g id="fan">
            <use xlink:href="#shape" transform="translate(50,50)"/>
            <use xlink:href="#shape" transform="translate(150,75)"/>

            <line x1="50" y1="50" x2="150" y2="75" stroke="red" stroke-width="10"/>
            <path d="M 75 200 L 125 200 L 100 65 Z"/>
        </g>

    </defs>

    <use xlink:href="#fan" fill="purple" transform="scale(0.75)"/>
    <use xlink:href="#fan" fill="green" transform="translate(250, 0) scale(0.5)"/>
    <use xlink:href="#fan" fill="blue" transform="translate(100, 80) "/>
</svg>